<svg width="40" height="40" viewBox="0 0 40 40" fill="none" xmlns="http://www.w3.org/2000/svg">
<g clip-path="url(#clip0_396_6599)">
<path d="M31.2523 9.69613C31.2518 9.73884 31.2641 9.74275 31.2891 9.70785C32.1 8.59327 33.1409 7.79223 34.4117 7.30473C34.7237 7.18546 35.225 7.04587 35.9156 6.88598C37.1141 6.60941 38.2531 6.34874 39.3328 6.10395C39.3615 6.0977 39.3758 6.10915 39.3758 6.13832C39.3747 7.56749 39.3747 8.94379 39.3758 10.2672C39.3768 11.6615 38.974 12.8685 38.1672 13.8883C37.5557 14.6623 36.7797 15.2383 35.8391 15.6164C35.5026 15.7513 35.0109 15.8909 34.3641 16.0352C33.3474 16.2612 32.324 16.4959 31.2938 16.7391C31.2646 16.7464 31.25 16.7649 31.25 16.7946V19.961C31.25 19.987 31.237 20 31.2109 20H30.0391C30.013 20 30 19.987 30 19.961V13.693C30 13.668 29.9878 13.6534 29.9633 13.6493C28.5591 13.4112 27.1219 13.1722 25.6516 12.9321C24.1979 12.6946 22.9016 12.1227 21.7625 11.2164C21.6609 11.1357 21.5518 11.08 21.4352 11.0493C15.5898 9.51488 9.68516 12.193 7.13125 17.6719C7.12988 17.6748 7.12916 17.6779 7.12915 17.681C7.12914 17.6842 7.12983 17.6873 7.13118 17.6901C7.13253 17.693 7.1345 17.6955 7.13694 17.6975C7.13939 17.6995 7.14225 17.7009 7.14531 17.7016L9.93828 18.4008C9.94204 18.4018 9.94549 18.4037 9.94826 18.4064C9.95104 18.4091 9.95305 18.4125 9.95408 18.4162C9.95511 18.42 9.95513 18.4239 9.95414 18.4276C9.95315 18.4314 9.95118 18.4348 9.94844 18.4375L2.81328 25.5727C2.81061 25.5753 2.80731 25.5771 2.80371 25.578C2.8001 25.5789 2.79633 25.5788 2.79276 25.5778C2.7892 25.5768 2.78596 25.5748 2.78339 25.5721C2.78082 25.5695 2.77901 25.5661 2.77813 25.5625L0.399219 16.0477C0.398238 16.0443 0.39818 16.0408 0.399049 16.0374C0.399918 16.034 0.401682 16.0309 0.404158 16.0284C0.406634 16.0259 0.40973 16.0242 0.413121 16.0233C0.416513 16.0224 0.420076 16.0225 0.423438 16.0235L3.32578 16.7493C3.35339 16.756 3.3724 16.7464 3.38281 16.7204C4.90859 13.0532 7.65938 10.1664 11.1742 8.46254C13.5711 7.30004 16.1617 6.77764 18.9461 6.89535C18.9831 6.89691 18.9977 6.87973 18.9898 6.84379C18.8531 6.21566 18.7547 5.60551 18.7531 4.9602C18.749 3.61801 18.7484 2.14327 18.7516 0.535977C18.7515 0.532922 18.7521 0.529896 18.7534 0.527108C18.7547 0.52432 18.7566 0.521837 18.759 0.519831C18.7614 0.517825 18.7642 0.516344 18.7672 0.51549C18.7702 0.514636 18.7734 0.514429 18.7766 0.514884C20.4391 0.789884 22.0969 1.06645 23.75 1.34457C24.6484 1.49561 25.2099 1.60603 25.4344 1.67582C29.0078 2.78832 31.2992 5.94457 31.2523 9.69613ZM22.7234 6.0266L23.5453 5.20316C23.5512 5.19758 23.559 5.19446 23.567 5.19446C23.575 5.19446 23.5827 5.19758 23.5883 5.20316L29.9445 11.5594C29.9836 11.599 30.0029 11.5909 30.0023 11.5352C29.9891 10.4485 30.0703 9.34848 29.9039 8.34379C29.4898 5.8391 27.7398 3.7766 25.3289 2.96801C24.9289 2.83415 24.4263 2.71801 23.8211 2.61957C22.5898 2.42009 21.3271 2.21098 20.0328 1.99223C20.0291 1.99154 20.0253 1.99168 20.0217 1.99261C20.0181 1.99355 20.0147 1.99527 20.0118 1.99765C20.0089 2.00003 20.0065 2.00301 20.0049 2.0064C20.0033 2.00978 20.0024 2.01347 20.0023 2.01723C19.9966 2.97608 19.9966 3.95629 20.0023 4.95785C20.0203 7.96957 22.0188 10.6368 24.907 11.4789C25.2997 11.5935 25.8049 11.699 26.4227 11.7954C27.2023 11.9167 27.9693 12.0441 28.7234 12.1774C28.7291 12.1785 28.7349 12.1777 28.7401 12.1752C28.7453 12.1727 28.7495 12.1686 28.7522 12.1635C28.7548 12.1584 28.7557 12.1526 28.7548 12.1469C28.7538 12.1412 28.751 12.136 28.7469 12.1321L22.7234 6.10785C22.6964 6.08077 22.6964 6.05369 22.7234 6.0266ZM35.2227 10.8477L36.0469 11.6704C36.0525 11.6763 36.0556 11.684 36.0556 11.6921C36.0556 11.7001 36.0525 11.7077 36.0469 11.7133L32.6578 15.1016C32.6544 15.1052 32.6522 15.1098 32.6515 15.1147C32.6509 15.1197 32.6518 15.1247 32.6542 15.129C32.6566 15.1332 32.6604 15.1366 32.6648 15.1384C32.6693 15.1402 32.6742 15.1405 32.6789 15.1391C33.155 15.0214 33.6763 14.9011 34.243 14.7782C34.8857 14.6386 35.38 14.4797 35.7258 14.3016C37.2156 13.5313 38.1164 12.0664 38.1227 10.3969C38.1263 9.44327 38.1266 8.54145 38.1234 7.69145C38.1234 7.68771 38.1226 7.68403 38.1209 7.68068C38.1193 7.67732 38.1169 7.67437 38.114 7.67205C38.1111 7.66973 38.1077 7.66809 38.104 7.66725C38.1004 7.66642 38.0966 7.66641 38.093 7.66723C37.3508 7.83702 36.5323 8.0266 35.6375 8.23598C33.0406 8.84379 31.2609 11.0649 31.2516 13.7352C31.2505 14.0717 31.2505 14.3941 31.2516 14.7024C31.2516 14.7054 31.2525 14.7084 31.2543 14.7109C31.256 14.7135 31.2584 14.7154 31.2612 14.7166C31.2641 14.7178 31.2672 14.7181 31.2702 14.7175C31.2732 14.7169 31.2759 14.7155 31.2781 14.7133L35.1414 10.8477C35.1685 10.8206 35.1956 10.8206 35.2227 10.8477ZM5.43047 18.5063C6.65156 15.1383 8.96328 12.3047 12.2023 10.7368C14.6591 9.54822 17.3044 9.1391 20.1383 9.50941C20.1427 9.50998 20.1472 9.50926 20.1512 9.50736C20.1553 9.50545 20.1587 9.50244 20.1611 9.49866C20.1634 9.49489 20.1647 9.49051 20.1647 9.48605C20.1646 9.48159 20.1634 9.47723 20.1609 9.47348C19.901 9.09587 19.6695 8.68077 19.4664 8.22816C19.4596 8.21305 19.4488 8.20006 19.4351 8.19058C19.4215 8.18109 19.4056 8.17545 19.3891 8.17426C16.7823 7.9878 14.3583 8.38546 12.1172 9.36723C8.73906 10.8469 6.12031 13.5454 4.64922 16.95C4.46849 17.3688 4.30573 17.7849 4.16094 18.1985C4.15052 18.2271 4.13073 18.2378 4.10156 18.2305L2.14922 17.7414C2.14501 17.7404 2.14058 17.7404 2.13638 17.7415C2.13218 17.7427 2.12835 17.7449 2.12527 17.748C2.1222 17.751 2.11998 17.7549 2.11883 17.7591C2.11769 17.7633 2.11766 17.7677 2.11875 17.7719L3.44766 23.0907C3.45807 23.1323 3.47839 23.1381 3.50859 23.1079L7.49609 19.1211C7.49937 19.1177 7.50169 19.1134 7.5028 19.1087C7.50392 19.1041 7.5038 19.0992 7.50246 19.0947C7.50111 19.0901 7.49859 19.0859 7.49515 19.0826C7.4917 19.0793 7.48745 19.077 7.48281 19.0758L5.46484 18.5711C5.42995 18.5623 5.41849 18.5407 5.43047 18.5063Z" fill="#B4B1B1"/>
<path d="M25.6228 23.1242C25.6228 24.1088 25.4288 25.0838 25.052 25.9935C24.6752 26.9031 24.123 27.7297 23.4267 28.4259C22.7305 29.1221 21.904 29.6744 20.9943 30.0512C20.0847 30.428 19.1097 30.6219 18.1251 30.6219C16.1366 30.6219 14.2295 29.832 12.8235 28.4259C11.4174 27.0198 10.6274 25.1127 10.6274 23.1242C10.6274 21.1357 11.4174 19.2287 12.8235 17.8226C14.2295 16.4165 16.1366 15.6266 18.1251 15.6266C19.1097 15.6266 20.0847 15.8205 20.9943 16.1973C21.904 16.5741 22.7305 17.1264 23.4267 17.8226C24.123 18.5188 24.6752 19.3454 25.052 20.255C25.4288 21.1647 25.6228 22.1396 25.6228 23.1242ZM18.0774 17.0578C17.1759 17.8539 16.5946 18.8047 16.1478 19.9414C16.1321 19.9805 16.1454 20 16.1876 20H20.0618C20.0957 20 20.1069 19.9841 20.0954 19.9524C19.6855 18.8102 19.0444 17.8456 18.172 17.0586C18.1407 17.0305 18.1092 17.0302 18.0774 17.0578ZM16.1915 17.1781C14.6899 17.6979 13.5397 18.6279 12.7407 19.968C12.7387 19.9712 12.7376 19.9749 12.7375 19.9787C12.7374 19.9825 12.7382 19.9862 12.74 19.9895C12.7418 19.9927 12.7444 19.9955 12.7475 19.9973C12.7507 19.9992 12.7542 20.0001 12.7579 20H14.7829C14.794 20 14.8047 19.9964 14.8136 19.9898C14.8224 19.9832 14.8289 19.9739 14.8321 19.9633C15.1462 18.9331 15.6097 18.0193 16.2228 17.2219C16.2618 17.1719 16.2514 17.1573 16.1915 17.1781ZM23.5017 19.95C22.697 18.6258 21.5095 17.6594 20.0509 17.1789C20.0004 17.1623 19.9912 17.175 20.0235 17.2172C20.648 18.037 21.1108 18.9474 21.4118 19.9485C21.4217 19.9828 21.4446 20 21.4806 20H23.4735C23.5126 20 23.522 19.9834 23.5017 19.95ZM14.5204 24.9711C14.329 23.7188 14.3321 22.5141 14.5188 21.3039C14.5241 21.268 14.5084 21.25 14.472 21.25H12.2087C12.1769 21.25 12.1566 21.2654 12.1478 21.2961C11.7863 22.5347 11.7879 23.7555 12.1524 24.9586C12.1608 24.9862 12.1795 25 12.2087 25H14.4954C14.5147 25 14.523 24.9904 14.5204 24.9711ZM15.7931 21.2766C15.5686 22.5292 15.5704 23.7633 15.7985 24.9789C15.7996 24.9849 15.8028 24.9903 15.8073 24.9942C15.8119 24.998 15.8176 25.0001 15.8235 25H20.4134C20.4373 25 20.4514 24.9883 20.4556 24.9649C20.6785 23.7539 20.679 22.53 20.4571 21.293C20.4519 21.2643 20.4347 21.25 20.4056 21.25H15.8251C15.8069 21.25 15.7962 21.2589 15.7931 21.2766ZM24.1056 24.9508C24.4665 23.6649 24.4616 22.4433 24.0907 21.286C24.0829 21.262 24.0662 21.25 24.0407 21.25H21.7743C21.741 21.25 21.7269 21.2664 21.7321 21.2992C21.9238 22.5373 21.9222 23.7597 21.7274 24.9664C21.7268 24.9706 21.727 24.9749 21.7281 24.9789C21.7293 24.983 21.7313 24.9868 21.7341 24.99C21.7368 24.9932 21.7402 24.9957 21.7441 24.9975C21.7479 24.9992 21.7521 25.0001 21.7563 25H24.0415C24.0754 25 24.0967 24.9836 24.1056 24.9508ZM16.1923 29.0735C16.2527 29.0948 16.2634 29.08 16.2243 29.0289C15.6004 28.2138 15.1371 27.3008 14.8345 26.2899C14.8261 26.2633 14.8082 26.25 14.7806 26.25H12.7501C12.7473 26.2501 12.7445 26.2509 12.7421 26.2523C12.7397 26.2537 12.7377 26.2558 12.7363 26.2582C12.7349 26.2606 12.7341 26.2634 12.7341 26.2662C12.734 26.269 12.7347 26.2718 12.736 26.2742C13.5334 27.6143 14.6855 28.5474 16.1923 29.0735ZM16.1517 26.3016C16.5657 27.4203 17.2079 28.4219 18.0853 29.1922C18.0973 29.2028 18.1128 29.2087 18.1288 29.2087C18.1448 29.2087 18.1602 29.2028 18.172 29.1922C19.0459 28.4177 19.692 27.4446 20.1103 26.2727C20.1155 26.2576 20.1103 26.25 20.0946 26.25H16.1876C16.1511 26.25 16.1392 26.2672 16.1517 26.3016ZM21.4165 26.2875C21.122 27.2688 20.6392 28.2586 20.0126 29.0344C19.9834 29.0709 19.9912 29.0821 20.036 29.068C21.4652 28.6216 22.6178 27.705 23.4938 26.318C23.5225 26.2727 23.51 26.25 23.4563 26.25H21.4673C21.4412 26.25 21.4243 26.2625 21.4165 26.2875Z" fill="#B4B1B1"/>
<path d="M32.8602 29.5407C29.9438 36.4126 23.0157 40.2727 15.622 39.1907C13.061 38.8157 10.5165 37.7993 8.39461 36.2282C5.43107 34.0339 3.41831 31.131 2.35633 27.5196C2.348 27.4909 2.35816 27.4719 2.3868 27.4626L5.87665 26.3462C5.88249 26.3442 5.88866 26.3435 5.89478 26.3441C5.90091 26.3446 5.90685 26.3464 5.91226 26.3494C5.91767 26.3523 5.92243 26.3563 5.92624 26.3611C5.93006 26.3659 5.93285 26.3715 5.93446 26.3774C6.32196 27.743 6.86987 28.9555 7.57821 30.0149C10.229 33.9813 14.7884 36.0805 19.5313 35.5368C23.7766 35.0501 27.3196 32.4446 29.1165 28.5836C29.1183 28.5797 29.1192 28.5754 29.1192 28.5711C29.1191 28.5668 29.1182 28.5626 29.1164 28.5587C29.1146 28.5549 29.112 28.5515 29.1088 28.5487C29.1056 28.546 29.1018 28.5441 29.0977 28.543L26.3126 27.8469C26.3092 27.846 26.3061 27.8442 26.3036 27.8417C26.3011 27.8393 26.2993 27.8362 26.2984 27.8328C26.2974 27.8294 26.2974 27.8258 26.2982 27.8224C26.2991 27.819 26.3008 27.8159 26.3032 27.8133L33.4423 20.6735C33.4445 20.6714 33.4472 20.67 33.4501 20.6692C33.4531 20.6685 33.4561 20.6685 33.459 20.6693C33.4618 20.6701 33.4644 20.6716 33.4664 20.6737C33.4684 20.6759 33.4698 20.6785 33.4704 20.6813L35.8493 30.1946C35.8502 30.1987 35.85 30.2029 35.8488 30.2069C35.8477 30.2109 35.8455 30.2146 35.8425 30.2175C35.8396 30.2205 35.8359 30.2226 35.8319 30.2238C35.8279 30.225 35.8237 30.2252 35.8196 30.2243L32.936 29.5024C32.9001 29.4935 32.8748 29.5063 32.8602 29.5407ZM32.1587 28.0188L34.0962 28.5055C34.1008 28.5066 34.1056 28.5064 34.1102 28.5051C34.1147 28.5038 34.1189 28.5013 34.1222 28.498C34.1256 28.4946 34.128 28.4905 34.1293 28.4859C34.1307 28.4814 34.1308 28.4766 34.1298 28.4719L32.7977 23.1422C32.7967 23.1379 32.7945 23.1339 32.7914 23.1307C32.7883 23.1275 32.7844 23.1251 32.7801 23.1239C32.7758 23.1227 32.7712 23.1227 32.7669 23.1239C32.7626 23.125 32.7587 23.1273 32.7556 23.1305L28.7563 27.1297C28.7533 27.1329 28.7512 27.1368 28.7502 27.141C28.7491 27.1452 28.7492 27.1496 28.7504 27.1538C28.7516 27.158 28.7538 27.1618 28.7569 27.1648C28.76 27.1679 28.7639 27.17 28.7681 27.1712L30.8251 27.686C30.8267 27.6864 30.8282 27.6872 30.8295 27.6882C30.8308 27.6893 30.8319 27.6906 30.8327 27.692C30.8335 27.6935 30.834 27.6951 30.8341 27.6967C30.8343 27.6984 30.8342 27.7 30.8337 27.7016C30.4493 28.7777 29.9688 29.7714 29.3923 30.6829C27.272 34.0313 23.861 36.2321 19.9415 36.7462C17.4873 37.068 15.1337 36.7771 12.8806 35.8735C9.29305 34.4352 6.46024 31.5501 5.12821 27.9258C5.12555 27.9187 5.12027 27.9129 5.11343 27.9095C5.1066 27.9062 5.09875 27.9056 5.09149 27.9079L3.96727 28.2711C3.93654 28.281 3.92691 28.3011 3.93836 28.3313C6.69305 35.6204 14.279 39.5157 21.8243 37.6657C23.5753 37.237 25.1873 36.4995 26.6602 35.4532C29.2212 33.6329 31.0196 31.0954 32.0915 28.0547C32.1029 28.0225 32.1253 28.0105 32.1587 28.0188Z" fill="#B4B1B1"/>
</g>
<defs>
<clipPath id="clip0_396_6599">
<rect width="40" height="40" fill="white"/>
</clipPath>
</defs>
</svg>
