<svg width="22" height="22" viewBox="0 0 22 22" fill="none" xmlns="http://www.w3.org/2000/svg">
<g id="fluent:delete-20-regular">
<path id="Vector" d="M12.8482 4.20999C12.8482 3.79127 12.6819 3.38971 12.3858 3.09364C12.0898 2.79757 11.6882 2.63124 11.2695 2.63124C10.8508 2.63124 10.4492 2.79757 10.1531 3.09364C9.85706 3.38971 9.69073 3.79127 9.69073 4.20999H8.63823C8.63823 3.51213 8.91545 2.84287 9.40891 2.34941C9.90236 1.85596 10.5716 1.57874 11.2695 1.57874C11.9673 1.57874 12.6366 1.85596 13.1301 2.34941C13.6235 2.84287 13.9007 3.51213 13.9007 4.20999H18.637C18.7766 4.20999 18.9104 4.26543 19.0091 4.36412C19.1078 4.46281 19.1632 4.59667 19.1632 4.73624C19.1632 4.87581 19.1078 5.00966 19.0091 5.10835C18.9104 5.20704 18.7766 5.26249 18.637 5.26249H18.0539L16.6899 17.0821C16.6305 17.595 16.3846 18.0683 15.999 18.4118C15.6134 18.7553 15.115 18.9451 14.5985 18.945H7.94042C7.42401 18.9451 6.92559 18.7553 6.53999 18.4118C6.15438 18.0683 5.90849 17.595 5.84911 17.0821L4.48401 5.26249H3.90198C3.77881 5.26253 3.65953 5.21936 3.56491 5.14051C3.47029 5.06166 3.40632 4.95212 3.38415 4.83096L3.37573 4.73624C3.37573 4.59667 3.43118 4.46281 3.52987 4.36412C3.62856 4.26543 3.76241 4.20999 3.90198 4.20999H12.8482ZM16.993 5.26249H5.54493L6.89424 16.961C6.92394 17.2176 7.04696 17.4543 7.23988 17.6261C7.43279 17.7978 7.68213 17.8926 7.94042 17.8925H14.5985C14.8567 17.8924 15.1057 17.7975 15.2984 17.6257C15.4911 17.454 15.614 17.2174 15.6437 16.961L16.993 5.26249ZM9.69073 7.89374C9.9486 7.89374 10.1644 8.05687 10.2086 8.27158L10.217 8.35473V14.8013C10.217 15.0549 9.98122 15.2612 9.69073 15.2612C9.43287 15.2612 9.21711 15.0981 9.1729 14.8834L9.16448 14.8002V8.35578C9.16448 8.10108 9.40024 7.89479 9.69073 7.89479V7.89374ZM12.8482 7.89374C13.1061 7.89374 13.3219 8.05687 13.3661 8.27158L13.3745 8.35473V14.8013C13.3745 15.0549 13.1387 15.2612 12.8482 15.2612C12.5904 15.2612 12.3746 15.0981 12.3304 14.8834L12.322 14.8002V8.35578C12.322 8.10108 12.5577 7.89479 12.8482 7.89479V7.89374Z" fill="#629978"/>
</g>
</svg>
